<?xml version="1.0" encoding="UTF-8"?>
<svg version="1.1" xmlns="http://www.w3.org/2000/svg" width="16" height="16">
<path d="M0 0 C0.98484375 0.11988281 1.9696875 0.23976562 2.984375 0.36328125 C3.73203125 0.47027344 4.4796875 0.57726562 5.25 0.6875 C6.64805825 8.6098301 6.64805825 8.6098301 5.25 12.6875 C2.04619983 14.82336678 1.23060033 14.91882175 -2.4375 14.8125 C-3.24574219 14.79445313 -4.05398437 14.77640625 -4.88671875 14.7578125 C-5.80904297 14.72300781 -5.80904297 14.72300781 -6.75 14.6875 C-6.75 14.0275 -6.75 13.3675 -6.75 12.6875 C-7.74 12.3575 -8.73 12.0275 -9.75 11.6875 C-9.85836453 10.25166999 -9.93576167 8.8134798 -10 7.375 C-10.04640625 6.57449219 -10.0928125 5.77398437 -10.140625 4.94921875 C-9.75 2.6875 -9.75 2.6875 -8.09375 0.875 C-5.09537433 -0.64417701 -3.30865108 -0.43327574 0 0 Z " fill="#69859F" transform="translate(9.75,1.3125)"/>
<path d="M0 0 C0 1.98 0 3.96 0 6 C-2.64 5.67 -5.28 5.34 -8 5 C-8.33 5.99 -8.66 6.98 -9 8 C-9 7.01 -9 6.02 -9 5 C-9.99 5 -10.98 5 -12 5 C-12 4.34 -12 3.68 -12 3 C-11.34 3 -10.68 3 -10 3 C-9.67 2.01 -9.34 1.02 -9 0 C-5.93109813 -1.53445094 -3.29905734 -0.54984289 0 0 Z " fill="#2A4059" transform="translate(15,2)"/>
<path d="M0 0 C1.32 0 2.64 0 4 0 C4 0.66 4 1.32 4 2 C5.98 2 7.96 2 10 2 C9.67 2.99 9.34 3.98 9 5 C6.03 5 3.06 5 0 5 C0 3.35 0 1.7 0 0 Z " fill="#8BBAD9" transform="translate(3,11)"/>
<path d="M0 0 C2.97 0 5.94 0 9 0 C8.67 1.65 8.34 3.3 8 5 C5.36 4.34 2.72 3.68 0 3 C0 2.01 0 1.02 0 0 Z " fill="#B3BAC0" transform="translate(7,7)"/>
<path d="M0 0 C0.86625 0.3403125 0.86625 0.3403125 1.75 0.6875 C0.4375 2.1875 0.4375 2.1875 -1.25 3.6875 C-2.24 3.6875 -3.23 3.6875 -4.25 3.6875 C-4.58 4.6775 -4.91 5.6675 -5.25 6.6875 C-5.58 5.3675 -5.91 4.0475 -6.25 2.6875 C-2.80384615 -0.38942308 -2.80384615 -0.38942308 0 0 Z " fill="#B9DBEE" transform="translate(6.25,1.3125)"/>
<path d="M0 0 C1.65 0.33 3.3 0.66 5 1 C5.33 1.99 5.66 2.98 6 4 C3.69 4 1.38 4 -1 4 C-0.67 2.68 -0.34 1.36 0 0 Z " fill="#587284" transform="translate(6,2)"/>
<path d="M0 0 C1.32 0 2.64 0 4 0 C4 0.66 4 1.32 4 2 C5.98 2 7.96 2 10 2 C10 2.33 10 2.66 10 3 C6.7 3 3.4 3 0 3 C0 2.01 0 1.02 0 0 Z " fill="#EAEBEC" transform="translate(3,11)"/>
</svg>
